<?xml version="1.0" standalone="no"?>
<!DOCTYPE svg PUBLIC "-//W3C//DTD SVG 20010904//EN"
 "http://www.w3.org/TR/2001/REC-SVG-20010904/DTD/svg10.dtd">
<svg version="1.0" xmlns="http://www.w3.org/2000/svg"
 width="512.000000pt" height="512.000000pt" viewBox="0 0 512.000000 512.000000"
 preserveAspectRatio="xMidYMid meet">

<g transform="translate(0.000000,512.000000) scale(0.100000,-0.100000)"
fill="#000000" stroke="none">
<path d="M2060 3603 l0 -648 -393 393 -392 392 -118 -117 -117 -118 477 -477
478 -478 -478 -477 -477 -478 117 -118 118 -117 392 392 393 393 0 -648 0
-647 83 0 82 0 485 485 485 485 -365 365 -365 365 365 365 365 365 -485 485
-485 485 -82 0 -83 0 0 -647z m650 -332 c-5 -9 -76 -83 -159 -166 l-151 -150
0 325 0 325 159 -159 c124 -124 158 -163 151 -175z m0 -1442 c7 -12 -27 -51
-151 -175 l-159 -159 0 325 0 325 151 -150 c83 -83 154 -157 159 -166z"/>
<path d="M3741 3336 l-103 -103 27 -53 c42 -83 101 -274 120 -388 22 -129 16
-425 -10 -541 -21 -93 -68 -236 -106 -321 l-30 -64 98 -98 c54 -54 101 -98
104 -98 15 0 139 263 172 366 56 174 77 290 84 469 8 227 -21 411 -98 632 -32
90 -135 303 -148 303 -3 0 -53 -47 -110 -104z"/>
<path d="M3145 2740 l-190 -190 195 -195 195 -195 18 53 c38 110 50 190 51
332 0 79 -5 166 -12 200 -17 79 -52 185 -60 185 -4 0 -93 -86 -197 -190z"/>
</g>
</svg>
